 <svg xmlns="http://www.w3.org/2000/svg" xmlns:xlink="http://www.w3.org/1999/xlink" id="svg"><symbol id="face" viewBox="0 0 470.513 470.513"><path d="M271.521,154.17v-40.541c0-6.086,0.28-10.8,0.849-14.13c0.567-3.335,1.857-6.615,3.859-9.853
 c1.999-3.236, 5.236-5.47, 9.706-6.708c4.476-1.24, 10.424-1.858, 17.85-1.858h40.539V0h-64.809c-37.5, 0-64.433, 8.897-80.803, 26.691 c-16.368, 17.798-24.551, 44.014-24.551, 78.658v48.82h-48.542v81.086h48.539v235.256h97.362V235.256h64.805l8.566-81.086H271.521z" />
 </symbol><symbol id="twit" viewBox="0 0 612 612"><path d="M612,116.258c-22.525,9.981-46.694,16.75-72.088,19.772c25.929-15.527,45.777-40.155,55.184-69.411
 c-24.322, 14.379-51.169, 24.82-79.775, 30.48c-22.907-24.437-55.49-39.658-91.63-39.658c-69.334, 0-125.551, 56.217-125.551, 125.513 c0, 9.828, 1.109, 19.427, 3.251, 28.606C197.065, 206.32, 104.556, 156.337, 42.641, 80.386c-10.823, 18.51-16.98, 40.078-16.98, 63.101 c0, 43.559, 22.181, 81.993, 55.835, 104.479c-20.575-0.688-39.926-6.348-56.867-15.756v1.568c0, 60.806, 43.291, 111.554, 100.693, 123.104 c-10.517, 2.83-21.607, 4.398-33.08, 4.398c-8.107, 0-15.947-0.803-23.634-2.333c15.985, 49.907, 62.336, 86.199, 117.253, 87.194 c-42.947, 33.654-97.099, 53.655-155.916, 53.655c-10.134, 0-20.116-0.612-29.944-1.721c55.567, 35.681, 121.536, 56.485, 192.438, 56.485 c230.948, 0, 357.188-191.291, 357.188-357.188l-0.421-16.253C573.872, 163.526, 595.211, 141.422, 612, 116.258z" />
 </symbol><symbol id="inst" viewBox="0 0 510 510"><path d="M459,0H51C22.95,0,0,22.95,0,51v408c0,28.05,22.95,51,51,51h408c28.05,0,51-22.95,51-51V51C510,22.95,487.05,0,459,0z
 M255, 153c56.1, 0, 102, 45.9, 102, 102c0, 56.1-45.9, 102-102, 102c-56.1, 0-102-45.9-102-102C153, 198.9, 198.9, 153, 255, 153z M63.75, 459 C56.1, 459, 51, 453.9, 51, 446.25V229.5h53.55C102, 237.15, 102, 247.35, 102, 255c0, 84.15, 68.85, 153, 153, 153c84.15, 0, 153-68.85, 153-153 c0-7.65, 0-17.85-2.55-25.5H459v216.75c0, 7.65-5.1, 12.75-12.75, 12.75H63.75z M459, 114.75c0, 7.65-5.1, 12.75-12.75, 12.75h-51 c-7.65, 0-12.75-5.1-12.75-12.75v-51c0-7.65, 5.1-12.75, 12.75-12.75h51C453.9, 51, 459, 56.1, 459, 63.75V114.75z" />
 </symbol><symbol id="pint" viewBox="0 0 310.05 310.05"><path d="M245.265,31.772C223.923,11.284,194.388,0,162.101,0c-49.32,0-79.654,20.217-96.416,37.176
 c-20.658, 20.9-32.504, 48.651-32.504, 76.139c0, 34.513, 14.436, 61.003, 38.611, 70.858c1.623, 0.665, 3.256, 1, 4.857, 1 c5.1, 0, 9.141-3.337, 10.541-8.69c0.816-3.071, 2.707-10.647, 3.529-13.936c1.76-6.495, 0.338-9.619-3.5-14.142 c-6.992-8.273-10.248-18.056-10.248-30.788c0-37.818, 28.16-78.011, 80.352-78.011c41.412, 0, 67.137, 23.537, 67.137, 61.425 c0, 23.909-5.15, 46.051-14.504, 62.35c-6.5, 11.325-17.93, 24.825-35.477, 24.825c-7.588, 0-14.404-3.117-18.705-8.551 c-4.063-5.137-5.402-11.773-3.768-18.689c1.846-7.814, 4.363-15.965, 6.799-23.845c4.443-14.392, 8.643-27.985, 8.643-38.83 c0-18.55-11.404-31.014-28.375-31.014c-21.568, 0-38.465, 21.906-38.465, 49.871c0, 13.715, 3.645, 23.973, 5.295, 27.912 c-2.717, 11.512-18.865, 79.953-21.928, 92.859c-1.771, 7.534-12.44, 67.039, 5.219, 71.784c19.841, 5.331, 37.576-52.623, 39.381-59.172 c1.463-5.326, 6.582-25.465, 9.719-37.845c9.578, 9.226, 25, 15.463, 40.006, 15.463c28.289, 0, 53.73-12.73, 71.637-35.843 c17.367-22.418, 26.932-53.664, 26.932-87.978C276.869, 77.502, 265.349, 51.056, 245.265, 31.772z" />
 </symbol></svg>

 